# Blender v2.76 (sub 0) OBJ File: 'test_gate1.blend'
# www.blender.org
mtllib test_gate1.mtl.mtl
o Cylinder
v 0.267663 0.375000 1.004559
v 0.267663 -0.375000 1.004559
v 0.947365 0.375000 0.692256
v 0.947365 -0.375000 0.692256
v 1.541908 0.375000 0.225743
v 1.541908 -0.375000 0.225743
v 0.721624 0.375000 -1.087595
v 0.721624 -0.375000 -1.087595
v 0.119139 0.375000 -1.221600
v 0.119139 -0.375000 -1.221600
v -0.444626 0.312227 -0.906442
v -0.444626 -0.437773 -0.906442
v -0.845461 0.375000 -0.516168
v -0.845461 -0.375000 -0.516168
v -0.976706 0.375000 0.225743
v -0.976706 -0.375000 0.225743
v -0.835624 0.375000 1.290296
v -0.835624 -0.375000 1.290296
v 0.234123 0.375000 0.910354
v 0.234123 -0.375000 0.910354
v 0.895267 0.375000 0.606902
v 0.895267 -0.375000 0.606902
v 1.443413 0.375000 0.208472
v 1.443413 -0.375000 0.208472
v 0.663874 0.375000 -1.005957
v 0.663874 -0.375000 -1.005957
v 0.132430 0.375000 -1.122488
v 0.134759 -0.375000 -1.122830
v -0.384789 0.312227 -0.826322
v -0.384890 -0.437773 -0.826249
v -0.756536 0.375000 -0.470433
v -0.757607 -0.375000 -0.468404
v -0.876730 0.375000 0.227906
v -0.876730 -0.375000 0.227906
v -0.779757 0.375000 1.207359
v -0.779757 -0.375000 1.207359
vn 0.417500 0.000000 0.908700
vn 0.617300 0.000000 0.786700
vn 0.848200 0.000000 -0.529700
vn 0.217100 0.000000 -0.976100
vn -0.488000 0.000000 -0.872900
vn -0.697600 0.000000 -0.716500
vn -0.984700 0.000000 -0.174200
vn -0.991300 0.000000 0.131400
vn 0.250700 0.000000 0.968100
vn -0.417100 0.000000 -0.908800
vn -0.588000 -0.000000 -0.808900
vn -0.841500 -0.000000 0.540200
vn -0.214900 -0.000600 0.976600
vn 0.496200 0.000600 0.868200
vn 0.692100 0.000500 0.721800
vn 0.985600 -0.000500 0.169100
vn 0.995100 0.000000 -0.098500
vn -0.281100 0.000000 -0.959700
vn 0.000000 1.000000 0.000000
vn 0.000000 -1.000000 0.000000
vn -0.093900 0.994800 0.038300
vn 0.093100 -0.994900 -0.039200
vn 0.075400 0.993200 -0.089100
vn -0.076200 -0.993200 0.087900
usemtl (null)
s off
f 1//1 2//1 4//1 3//1
f 3//2 4//2 6//2 5//2
f 5//3 6//3 8//3 7//3
f 7//4 8//4 10//4 9//4
f 9//5 10//5 12//5 11//5
f 11//6 12//6 14//6 13//6
f 13//7 14//7 16//7 15//7
f 15//8 16//8 18//8 17//8
f 17//9 18//9 2//9 1//9
f 21//10 22//10 20//10 19//10
f 23//11 24//11 22//11 21//11
f 25//12 26//12 24//12 23//12
f 27//13 28//13 26//13 25//13
f 29//14 30//14 28//14 27//14
f 31//15 32//15 30//15 29//15
f 33//16 34//16 32//16 31//16
f 35//17 36//17 34//17 33//17
f 19//18 20//18 36//18 35//18
f 1//19 3//19 21//19 19//19
f 4//20 2//20 20//20 22//20
f 3//19 5//19 23//19 21//19
f 6//20 4//20 22//20 24//20
f 5//19 7//19 25//19 23//19
f 8//20 6//20 24//20 26//20
f 7//19 9//19 27//19 25//19
f 10//20 8//20 26//20 28//20
f 9//21 11//21 29//21 27//21
f 12//22 10//22 28//22 30//22
f 11//23 13//23 31//23 29//23
f 14//24 12//24 30//24 32//24
f 13//19 15//19 33//19 31//19
f 16//20 14//20 32//20 34//20
f 15//19 17//19 35//19 33//19
f 18//20 16//20 34//20 36//20
f 17//19 1//19 19//19 35//19
f 2//20 18//20 36//20 20//20
