# Blender v2.76 (sub 0) OBJ File: 'test_gate3.blend'
# www.blender.org
mtllib test_gate3.mtl
o Cylinder
v 0.000000 0.450000 1.000000
v 0.000000 -0.450000 1.000000
v 0.587785 0.450000 0.809017
v 0.587785 -0.450000 0.809017
v 0.951057 0.450000 0.309017
v 0.951057 -0.450000 0.309017
v 0.951056 0.450000 -0.309017
v 0.951056 -0.450000 -0.309017
v 0.587785 0.450000 -0.809017
v 0.587785 -0.450000 -0.809017
v -0.000000 0.450000 -1.000000
v -0.000000 -0.450000 -1.000000
v -0.587785 0.450000 -0.809017
v -0.587785 -0.450000 -0.809017
v -0.951056 0.450000 -0.309017
v -0.951056 -0.450000 -0.309017
v -0.951056 0.450000 0.309017
v -0.951056 -0.450000 0.309017
v -0.587785 0.450000 0.809017
v -0.587785 -0.450000 0.809017
v 0.000000 0.450000 0.800000
v 0.000000 -0.450000 0.800000
v 0.470234 0.450000 0.647214
v 0.470234 -0.450000 0.647214
v 0.760847 0.450000 0.247217
v 0.760847 -0.450000 0.247217
v 0.760847 0.450000 -0.247217
v 0.760847 -0.450000 -0.247217
v 0.470234 0.450000 -0.647214
v 0.470234 -0.450000 -0.647214
v -0.000000 0.450000 -0.800000
v -0.000000 -0.450000 -0.800000
v -0.470234 0.450000 -0.647214
v -0.470234 -0.450000 -0.647214
v -0.760847 0.450000 -0.247217
v -0.760847 -0.450000 -0.247217
v -0.760847 0.450000 0.247217
v -0.760847 -0.450000 0.247217
v -0.470234 0.450000 0.647214
v -0.470234 -0.450000 0.647214
vn 0.309000 0.000000 0.951100
vn 0.809000 0.000000 0.587800
vn 1.000000 0.000000 -0.000000
vn 0.809000 0.000000 -0.587800
vn 0.309000 0.000000 -0.951100
vn -0.309000 0.000000 -0.951100
vn -0.809000 -0.000000 -0.587800
vn -1.000000 -0.000000 0.000000
vn -0.809000 -0.000000 0.587800
vn -0.309000 0.000000 0.951100
vn 0.000000 1.000000 0.000000
vn 0.000000 -1.000000 0.000000
usemtl (null)
s off
f 1//1 2//1 4//1 3//1
f 3//2 4//2 6//2 5//2
f 5//3 6//3 8//3 7//3
f 7//4 8//4 10//4 9//4
f 9//5 10//5 12//5 11//5
f 11//6 12//6 14//6 13//6
f 13//7 14//7 16//7 15//7
f 15//8 16//8 18//8 17//8
f 17//9 18//9 20//9 19//9
f 19//10 20//10 2//10 1//10
f 23//6 24//6 22//6 21//6
f 25//7 26//7 24//7 23//7
f 27//8 28//8 26//8 25//8
f 29//9 30//9 28//9 27//9
f 31//10 32//10 30//10 29//10
f 33//1 34//1 32//1 31//1
f 35//2 36//2 34//2 33//2
f 37//3 38//3 36//3 35//3
f 39//4 40//4 38//4 37//4
f 21//5 22//5 40//5 39//5
f 1//11 3//11 23//11 21//11
f 4//12 2//12 22//12 24//12
f 3//11 5//11 25//11 23//11
f 6//12 4//12 24//12 26//12
f 5//11 7//11 27//11 25//11
f 8//12 6//12 26//12 28//12
f 7//11 9//11 29//11 27//11
f 10//12 8//12 28//12 30//12
f 9//11 11//11 31//11 29//11
f 12//12 10//12 30//12 32//12
f 11//11 13//11 33//11 31//11
f 14//12 12//12 32//12 34//12
f 13//11 15//11 35//11 33//11
f 16//12 14//12 34//12 36//12
f 15//11 17//11 37//11 35//11
f 18//12 16//12 36//12 38//12
f 17//11 19//11 39//11 37//11
f 20//12 18//12 38//12 40//12
f 19//11 1//11 21//11 39//11
f 2//12 20//12 40//12 22//12
