# Blender v2.76 (sub 0) OBJ File: 'gate12.blend'
# www.blender.org
mtllib gate12.mtl
o Cylinder
v 0.544395 0.250000 1.020673
v 0.544395 -0.250000 1.020673
v 0.974782 0.250000 0.713074
v 0.974782 -0.250000 0.713074
v 0.788869 0.250000 -0.360342
v 0.788869 -0.250000 -0.360342
v 0.261607 0.250000 -0.260099
v 0.261607 -0.250000 -0.260099
v -0.668180 0.250000 -0.790712
v -0.668180 -0.250000 -0.790712
v -1.036947 0.250000 -0.105373
v -1.036947 -0.250000 -0.105373
v -0.795614 0.250000 0.885350
v -0.795614 -0.250000 0.885350
v 0.536685 0.250000 0.991681
v 0.536685 -0.250000 0.991681
v 0.947027 0.250000 0.701685
v 0.947027 -0.250000 0.701685
v 0.771789 0.250000 -0.335680
v 0.771789 -0.250000 -0.335680
v 0.256669 0.250000 -0.230508
v 0.256669 -0.250000 -0.230508
v -0.659911 0.250000 -0.761874
v -0.659911 -0.250000 -0.761874
v -1.007191 0.250000 -0.101563
v -1.007191 -0.250000 -0.101563
v -0.775917 0.250000 0.862723
v -0.775917 -0.250000 0.862723
vn 0.581500 0.000000 0.813600
vn 0.985300 0.000000 -0.170700
vn -0.186800 0.000000 -0.982400
vn 0.495600 0.000000 -0.868500
vn -0.880600 0.000000 -0.473800
vn -0.971600 0.000000 0.236700
vn -0.100500 0.000000 0.994900
vn -0.577100 0.000000 -0.816600
vn -0.986000 0.000000 0.166600
vn 0.200000 -0.000000 0.979800
vn -0.501500 -0.000000 0.865100
vn 0.885100 0.000000 0.465500
vn 0.972400 -0.000000 -0.233200
vn 0.097800 0.000000 -0.995200
vn 0.000000 1.000000 0.000000
vn 0.000000 -1.000000 0.000000
usemtl (null)
s off
f 1//1 2//1 4//1 3//1
f 3//2 4//2 6//2 5//2
f 5//3 6//3 8//3 7//3
f 7//4 8//4 10//4 9//4
f 9//5 10//5 12//5 11//5
f 11//6 12//6 14//6 13//6
f 13//7 14//7 2//7 1//7
f 17//8 18//8 16//8 15//8
f 19//9 20//9 18//9 17//9
f 21//10 22//10 20//10 19//10
f 23//11 24//11 22//11 21//11
f 25//12 26//12 24//12 23//12
f 27//13 28//13 26//13 25//13
f 15//14 16//14 28//14 27//14
f 1//15 3//15 17//15 15//15
f 4//16 2//16 16//16 18//16
f 3//15 5//15 19//15 17//15
f 6//16 4//16 18//16 20//16
f 5//15 7//15 21//15 19//15
f 8//16 6//16 20//16 22//16
f 7//15 9//15 23//15 21//15
f 10//16 8//16 22//16 24//16
f 9//15 11//15 25//15 23//15
f 12//16 10//16 24//16 26//16
f 11//15 13//15 27//15 25//15
f 14//16 12//16 26//16 28//16
f 13//15 1//15 15//15 27//15
f 2//16 14//16 28//16 16//16
