# Blender v2.76 (sub 0) OBJ File: 'gate10.blend'
# www.blender.org
mtllib gate10.mtl
o Cylinder
v -0.416188 0.207386 1.086895
v -0.416188 -0.292614 1.086895
v 0.988485 0.455146 0.948743
v 0.988485 -0.044854 0.948743
v 0.536569 0.415841 -0.897449
v 0.536569 -0.084159 -0.897449
v -0.573433 0.234804 -0.739862
v -0.573433 -0.265196 -0.739862
v -1.176812 0.564629 0.632305
v -1.176812 0.064629 0.632305
v -0.368848 0.207386 0.892584
v -0.377711 -0.292614 0.890637
v 0.818668 0.455146 0.843100
v 0.831626 -0.044854 0.824673
v 0.415642 0.415841 -0.738154
v 0.432885 -0.084159 -0.726429
v -0.451176 0.234804 -0.581587
v -0.454411 -0.265196 -0.579139
v -0.983086 0.564629 0.582614
v -0.988818 0.064629 0.564065
vn 0.097900 0.000000 0.995200
vn 0.971300 0.000000 -0.237800
vn -0.140600 0.000000 -0.990100
vn -0.915400 0.000000 -0.402500
vn -0.513000 0.000000 0.858400
vn -0.052300 0.020100 -0.998400
vn -0.968100 -0.030900 0.248600
vn 0.167400 0.016300 0.985800
vn 0.906000 -0.014900 0.423000
vn 0.466200 0.011300 -0.884600
vn -0.182000 0.980500 0.074300
vn 0.180800 -0.981200 -0.066800
vn -0.004000 0.999800 -0.021900
vn 0.004000 -0.999700 0.022100
vn -0.180000 0.983700 0.000800
vn 0.177200 -0.984100 -0.008200
vn 0.075300 0.972800 -0.219300
vn -0.067600 -0.972200 0.224400
vn 0.303400 0.904500 0.299700
vn -0.318000 -0.908200 -0.272300
usemtl (null)
s off
f 1//1 2//1 4//1 3//1
f 3//2 4//2 6//2 5//2
f 5//3 6//3 8//3 7//3
f 7//4 8//4 10//4 9//4
f 9//5 10//5 2//5 1//5
f 13//6 14//6 12//6 11//6
f 15//7 16//7 14//7 13//7
f 17//8 18//8 16//8 15//8
f 19//9 20//9 18//9 17//9
f 11//10 12//10 20//10 19//10
f 1//11 3//11 13//11 11//11
f 4//12 2//12 12//12 14//12
f 3//13 5//13 15//13 13//13
f 6//14 4//14 14//14 16//14
f 5//15 7//15 17//15 15//15
f 8//16 6//16 16//16 18//16
f 7//17 9//17 19//17 17//17
f 10//18 8//18 18//18 20//18
f 9//19 1//19 11//19 19//19
f 2//20 10//20 20//20 12//20
