# Blender v2.76 (sub 0) OBJ File: 'gate6.blend'
# www.blender.org
mtllib gate6.mtl
o Cylinder
v 0.375000 0.500000 1.099519
v 0.375000 -0.500000 1.099519
v 1.299038 0.500000 0.450000
v 1.299038 -0.500000 0.450000
v 1.500000 0.500000 -0.300000
v 1.500000 -0.500000 -0.300000
v 1.024519 0.500000 -1.324519
v 1.024519 -0.500000 -1.324519
v -0.683012 0.500000 -1.483013
v -0.683012 -0.500000 -1.483013
v -1.500000 0.500000 -0.300001
v -1.500000 -0.500000 -0.300001
v -1.299039 0.500000 0.449999
v -1.299039 -0.500000 0.449999
v -0.750001 0.500000 0.999038
v -0.750001 -0.500000 0.999038
v 0.323241 0.500000 0.906337
v 0.323241 -0.500000 0.906337
v 1.135105 0.500000 0.335433
v 1.135105 -0.500000 0.335433
v 1.300751 0.500000 -0.282751
v 1.300751 -0.500000 -0.282751
v 0.909226 0.500000 -1.161098
v 0.909226 -0.500000 -1.161098
v -0.598385 0.500000 -1.301806
v -0.598385 -0.500000 -1.301806
v -1.302930 0.500000 -0.265912
v -1.302930 -0.500000 -0.265912
v -1.125834 0.500000 0.350002
v -1.125834 -0.500000 0.350002
v -0.665318 0.500000 0.817855
v -0.665318 -0.500000 0.817855
vn 0.575100 0.000000 0.818100
vn 0.965900 -0.000000 0.258800
vn 0.907100 0.000000 -0.421000
vn 0.092400 0.000000 -0.995700
vn -0.822800 0.000000 -0.568300
vn -0.965900 0.000000 0.258800
vn -0.707100 0.000000 0.707100
vn -0.089000 0.000000 0.996000
vn -0.575200 0.000000 -0.818000
vn -0.965900 0.000000 -0.258800
vn -0.913400 0.000000 0.407100
vn -0.092900 0.000000 0.995700
vn 0.826900 -0.000000 0.562400
vn 0.961100 0.000000 -0.276300
vn 0.712700 0.000000 -0.701500
vn 0.089100 0.000000 -0.996000
vn -0.000000 1.000000 0.000000
vn -0.000000 -1.000000 0.000000
usemtl (null)
s off
f 1//1 2//1 4//1 3//1
f 3//2 4//2 6//2 5//2
f 5//3 6//3 8//3 7//3
f 7//4 8//4 10//4 9//4
f 9//5 10//5 12//5 11//5
f 11//6 12//6 14//6 13//6
f 13//7 14//7 16//7 15//7
f 15//8 16//8 2//8 1//8
f 19//9 20//9 18//9 17//9
f 21//10 22//10 20//10 19//10
f 23//11 24//11 22//11 21//11
f 25//12 26//12 24//12 23//12
f 27//13 28//13 26//13 25//13
f 29//14 30//14 28//14 27//14
f 31//15 32//15 30//15 29//15
f 17//16 18//16 32//16 31//16
f 1//17 3//17 19//17 17//17
f 3//17 5//17 21//17 19//17
f 6//18 4//18 20//18 22//18
f 5//17 7//17 23//17 21//17
f 8//18 6//18 22//18 24//18
f 4//18 2//18 18//18 20//18
f 7//17 9//17 25//17 23//17
f 9//17 11//17 27//17 25//17
f 11//17 13//17 29//17 27//17
f 14//18 12//18 28//18 30//18
f 13//17 15//17 31//17 29//17
f 16//18 14//18 30//18 32//18
f 15//17 1//17 17//17 31//17
f 2//18 16//18 32//18 18//18
f 10//18 8//18 24//18 26//18
f 12//18 10//18 26//18 28//18
