# Blender v2.76 (sub 0) OBJ File: 'gate13.blend'
# www.blender.org
mtllib gate13.mtl
o Cylinder
v 0.500000 0.250000 0.866025
v 0.500000 -0.250000 0.866025
v 0.500000 0.250000 -0.866025
v 0.500000 -0.250000 -0.866025
v -1.000000 0.250000 0.000000
v -1.000000 -0.250000 0.000000
v 0.485000 0.250000 0.840045
v 0.485000 -0.250000 0.840045
v 0.485000 0.250000 -0.840045
v 0.485000 -0.250000 -0.840045
v -0.970000 0.250000 -0.000000
v -0.970000 -0.250000 -0.000000
vn -0.500000 -0.000000 0.866000
vn 0.500000 0.000000 -0.866000
vn 0.000000 1.000000 0.000000
vn -0.000000 -1.000000 -0.000000
vn -0.500000 0.000000 -0.866000
vn 0.500000 0.000000 0.866000
vn 1.000000 0.000000 -0.000000
vn -1.000000 0.000000 0.000000
usemtl (null)
s off
f 5//1 6//1 2//1 1//1
f 7//2 8//2 12//2 11//2
f 5//3 1//3 7//3 11//3
f 2//4 6//4 12//4 8//4
f 3//5 4//5 6//5 5//5
f 11//6 12//6 10//6 9//6
f 3//3 5//3 11//3 9//3
f 6//4 4//4 10//4 12//4
f 1//7 2//7 4//7 3//7
f 9//8 10//8 8//8 7//8
f 1//3 3//3 9//3 7//3
f 4//4 2//4 8//4 10//4
