# Blender v2.76 (sub 0) OBJ File: 'gate14.blend'
# www.blender.org
mtllib gate14.mtl
o Cylinder
v 0.000000 0.500000 1.000000
v 0.000000 -0.500000 1.000000
v 1.000000 0.500000 -0.000000
v 1.000000 -0.500000 -0.000000
v -0.000000 0.500000 -1.000000
v -0.000000 -0.500000 -1.000000
v -1.000000 0.500000 0.000000
v -1.000000 -0.500000 -0.000000
v 0.000000 0.500000 0.940000
v 0.000000 -0.500000 0.940000
v 0.940000 0.500000 -0.000000
v 0.940000 -0.500000 -0.000000
v -0.000000 0.500000 -0.940000
v -0.000000 -0.500000 -0.940000
v -0.940000 0.500000 0.000000
v -0.940000 -0.500000 -0.000000
vn 0.707100 0.000000 0.707100
vn 0.707100 0.000000 -0.707100
vn -0.707100 0.000000 -0.707100
vn -0.707100 0.000000 0.707100
vn -0.000000 1.000000 0.000000
vn 0.000000 -1.000000 0.000000
usemtl Material
s off
f 1//1 2//1 4//1 3//1
f 3//2 4//2 6//2 5//2
f 5//3 6//3 8//3 7//3
f 7//4 8//4 2//4 1//4
f 11//3 12//3 10//3 9//3
f 13//4 14//4 12//4 11//4
f 15//1 16//1 14//1 13//1
f 9//2 10//2 16//2 15//2
f 1//5 3//5 11//5 9//5
f 4//6 2//6 10//6 12//6
f 3//5 5//5 13//5 11//5
f 6//6 4//6 12//6 14//6
f 5//5 7//5 15//5 13//5
f 8//6 6//6 14//6 16//6
f 7//5 1//5 9//5 15//5
f 2//6 8//6 16//6 10//6
