# Blender v2.76 (sub 0) OBJ File: 'gate3.blend'
# www.blender.org
mtllib gate3.mtl
o Cylinder
v 0.000000 0.500000 1.000000
v 0.000000 -0.500000 1.000000
v 0.866025 0.500000 0.500000
v 0.866025 -0.500000 0.500000
v 0.866025 0.500000 -0.500000
v 0.866025 -0.500000 -0.500000
v -0.000000 0.500000 -1.000000
v -0.000000 -0.500000 -1.000000
v -0.866025 0.500000 -0.500000
v -0.866025 -0.500000 -0.500000
v -0.866025 0.500000 0.500000
v -0.866025 -0.500000 0.500000
v 0.000000 0.500000 0.900000
v 0.000000 -0.500000 0.900000
v 0.779423 0.500000 0.450002
v 0.779423 -0.500000 0.450001
v 0.779423 0.500000 -0.450002
v 0.779423 -0.500000 -0.450002
v -0.000000 0.500000 -0.900003
v -0.000000 -0.500000 -0.900003
v -0.779423 0.500000 -0.450001
v -0.779423 -0.500000 -0.450001
v -0.779423 0.500000 0.450001
v -0.779423 -0.500000 0.450001
vn 0.500000 -0.000000 0.866000
vn 1.000000 0.000000 -0.000000
vn 0.500000 0.000000 -0.866000
vn -0.500000 0.000000 -0.866000
vn -1.000000 -0.000000 0.000000
vn -0.500000 -0.000000 0.866000
vn 0.000000 1.000000 0.000000
vn 0.000000 -1.000000 0.000000
usemtl Material
s off
f 1//1 2//1 4//1 3//1
f 3//2 4//2 6//2 5//2
f 5//3 6//3 8//3 7//3
f 7//4 8//4 10//4 9//4
f 9//5 10//5 12//5 11//5
f 11//6 12//6 2//6 1//6
f 15//4 16//4 14//4 13//4
f 17//5 18//5 16//5 15//5
f 19//6 20//6 18//6 17//6
f 21//1 22//1 20//1 19//1
f 23//2 24//2 22//2 21//2
f 13//3 14//3 24//3 23//3
f 1//7 3//7 15//7 13//7
f 4//8 2//8 14//8 16//8
f 3//7 5//7 17//7 15//7
f 6//8 4//8 16//8 18//8
f 5//7 7//7 19//7 17//7
f 8//8 6//8 18//8 20//8
f 7//7 9//7 21//7 19//7
f 10//8 8//8 20//8 22//8
f 9//7 11//7 23//7 21//7
f 12//8 10//8 22//8 24//8
f 11//7 1//7 13//7 23//7
f 2//8 12//8 24//8 14//8
