# Blender v2.76 (sub 0) OBJ File: 'gate19.blend'
# www.blender.org
mtllib gate19.mtl
o Cylinder
v 0.000000 0.500000 1.500000
v 0.000000 -0.500000 1.500000
v 0.125581 0.500000 1.496053
v 0.125581 -0.500000 1.496053
v 0.250666 0.500000 1.484229
v 0.250666 -0.500000 1.484229
v 0.374763 0.500000 1.464574
v 0.374763 -0.500000 1.464574
v 0.497380 0.500000 1.437166
v 0.497380 -0.500000 1.437166
v 0.618034 0.500000 1.402113
v 0.618034 -0.500000 1.402113
v 0.736249 0.500000 1.359553
v 0.736249 -0.500000 1.359553
v 0.851559 0.500000 1.309654
v 0.851559 -0.500000 1.309654
v 0.963507 0.500000 1.252613
v 0.963507 -0.500000 1.252613
v 1.071654 0.500000 1.188656
v 1.071654 -0.500000 1.188656
v 1.175571 0.500000 1.118034
v 1.175571 -0.500000 1.118034
v 1.274848 0.500000 1.041026
v 1.274848 -0.500000 1.041026
v 1.369094 0.500000 0.957937
v 1.369094 -0.500000 0.957937
v 1.457937 0.500000 0.869094
v 1.457937 -0.500000 0.869094
v 1.541027 0.500000 0.774848
v 1.541027 -0.500000 0.774848
v 1.618034 0.500000 0.675570
v 1.618034 -0.500000 0.675570
v 1.688656 0.500000 0.571653
v 1.688656 -0.500000 0.571653
v 1.752614 0.500000 0.463507
v 1.752614 -0.500000 0.463507
v 1.809654 0.500000 0.351558
v 1.809654 -0.500000 0.351558
v 1.859553 0.500000 0.236249
v 1.859553 -0.500000 0.236249
v 1.902113 0.500000 0.118033
v 1.902113 -0.500000 0.118033
v 1.937166 0.500000 -0.002621
v 1.937166 -0.500000 -0.002621
v 1.964575 0.500000 -0.125238
v 1.964575 -0.500000 -0.125238
v 1.984229 0.500000 -0.249334
v 1.984229 -0.500000 -0.249334
v 1.996053 0.500000 -0.374420
v 1.996053 -0.500000 -0.374420
v 2.000000 0.500000 -0.500001
v 2.000000 -0.500000 -0.500001
v 1.996053 0.500000 -0.625582
v 1.996053 -0.500000 -0.625582
v 1.984229 0.500000 -0.750667
v 1.984229 -0.500000 -0.750667
v 1.964574 0.500000 -0.874764
v 1.964574 -0.500000 -0.874764
v 1.937166 0.500000 -0.997381
v 1.937166 -0.500000 -0.997381
v 1.902113 0.500000 -1.118035
v 1.902113 -0.500000 -1.118035
v 1.859553 0.500000 -1.236250
v 1.859553 -0.500000 -1.236250
v 1.809654 0.500000 -1.351560
v 1.809654 -0.500000 -1.351560
v 1.752613 0.500000 -1.463508
v 1.752613 -0.500000 -1.463508
v 1.688655 0.500000 -1.571655
v 1.688655 -0.500000 -1.571655
v 1.618033 0.500000 -1.675572
v 1.618033 -0.500000 -1.675572
v 1.541026 0.500000 -1.774849
v 1.541026 -0.500000 -1.774849
v 1.457936 0.500000 -1.869095
v 1.457936 -0.500000 -1.869095
v 1.369093 0.500000 -1.957938
v 1.369093 -0.500000 -1.957938
v 1.274847 0.500000 -2.041028
v 1.274847 -0.500000 -2.041028
v 1.175569 0.500000 -2.118035
v 1.175569 -0.500000 -2.118035
v 0.548937 0.500000 -2.389462
v 0.548937 -0.500000 -2.389462
v -0.666498 0.500000 -2.351264
v -0.666498 -0.500000 -2.351264
v -1.274850 0.500000 -2.041025
v -1.274850 -0.500000 -2.041025
v -1.369096 0.500000 -1.957935
v -1.369096 -0.500000 -1.957935
v -1.457939 0.500000 -1.869092
v -1.457939 -0.500000 -1.869092
v -1.541028 0.500000 -1.774846
v -1.541028 -0.500000 -1.774846
v -1.618035 0.500000 -1.675569
v -1.618035 -0.500000 -1.675569
v -1.688657 0.500000 -1.571652
v -1.688657 -0.500000 -1.571652
v -1.752614 0.500000 -1.463505
v -1.752614 -0.500000 -1.463505
v -1.809655 0.500000 -1.351556
v -1.809655 -0.500000 -1.351556
v -1.859554 0.500000 -1.236247
v -1.859554 -0.500000 -1.236247
v -1.902114 0.500000 -1.118032
v -1.902114 -0.500000 -1.118032
v -1.937167 0.500000 -0.997377
v -1.937167 -0.500000 -0.997377
v -1.964575 0.500000 -0.874760
v -1.964575 -0.500000 -0.874760
v -1.984230 0.500000 -0.750664
v -1.984230 -0.500000 -0.750664
v -1.996054 0.500000 -0.625578
v -1.996054 -0.500000 -0.625578
v -2.000000 0.500000 -0.499997
v -2.000000 -0.500000 -0.499997
v -1.996053 0.500000 -0.374416
v -1.996053 -0.500000 -0.374416
v -1.984229 0.500000 -0.249331
v -1.984229 -0.500000 -0.249331
v -1.964574 0.500000 -0.125234
v -1.964574 -0.500000 -0.125234
v -1.937165 0.500000 -0.002617
v -1.937165 -0.500000 -0.002617
v -1.902112 0.500000 0.118037
v -1.902112 -0.500000 0.118037
v -1.859552 0.500000 0.236252
v -1.859552 -0.500000 0.236252
v -1.809653 0.500000 0.351562
v -1.809653 -0.500000 0.351562
v -1.752612 0.500000 0.463510
v -1.752612 -0.500000 0.463510
v -1.688654 0.500000 0.571656
v -1.688654 -0.500000 0.571656
v -1.618032 0.500000 0.675573
v -1.618032 -0.500000 0.675573
v -1.541024 0.500000 0.774851
v -1.541024 -0.500000 0.774851
v -1.457935 0.500000 0.869097
v -1.457935 -0.500000 0.869097
v -1.369092 0.500000 0.957940
v -1.369092 -0.500000 0.957940
v -1.274845 0.500000 1.041029
v -1.274845 -0.500000 1.041029
v -1.175568 0.500000 1.118036
v -1.175568 -0.500000 1.118036
v -1.071651 0.500000 1.188658
v -1.071651 -0.500000 1.188658
v -0.963504 0.500000 1.252615
v -0.963504 -0.500000 1.252615
v -0.851555 0.500000 1.309656
v -0.851555 -0.500000 1.309656
v -0.736246 0.500000 1.359554
v -0.736246 -0.500000 1.359554
v -0.618030 0.500000 1.402114
v -0.618030 -0.500000 1.402114
v -0.497376 0.500000 1.437167
v -0.497376 -0.500000 1.437167
v -0.374759 0.500000 1.464575
v -0.374759 -0.500000 1.464575
v -0.250662 0.500000 1.484230
v -0.250662 -0.500000 1.484230
v -0.125577 0.500000 1.496054
v -0.125577 -0.500000 1.496054
v 0.000000 0.500000 1.480000
v 0.000000 -0.500000 1.480000
v 0.124326 0.500000 1.476093
v 0.124326 -0.500000 1.476093
v 0.248160 0.500000 1.464388
v 0.248160 -0.500000 1.464388
v 0.371016 0.500000 1.444929
v 0.371016 -0.500000 1.444929
v 0.492407 0.500000 1.417795
v 0.492407 -0.500000 1.417795
v 0.611854 0.500000 1.383092
v 0.611854 -0.500000 1.383092
v 0.728887 0.500000 1.340958
v 0.728887 -0.500000 1.340958
v 0.843043 0.500000 1.291558
v 0.843043 -0.500000 1.291558
v 0.953873 0.500000 1.235088
v 0.953873 -0.500000 1.235088
v 1.060937 0.500000 1.171769
v 1.060937 -0.500000 1.171769
v 1.163815 0.500000 1.101854
v 1.163815 -0.500000 1.101854
v 1.262100 0.500000 1.025616
v 1.262100 -0.500000 1.025616
v 1.355404 0.500000 0.943358
v 1.355404 -0.500000 0.943358
v 1.443358 0.500000 0.855403
v 1.443358 -0.500000 0.855403
v 1.525617 0.500000 0.762100
v 1.525617 -0.500000 0.762100
v 1.601854 0.500000 0.663815
v 1.601854 -0.500000 0.663815
v 1.671770 0.500000 0.560937
v 1.671770 -0.500000 0.560937
v 1.735088 0.500000 0.453872
v 1.735088 -0.500000 0.453872
v 1.791558 0.500000 0.343043
v 1.791558 -0.500000 0.343043
v 1.840958 0.500000 0.228886
v 1.840958 -0.500000 0.228886
v 1.883092 0.500000 0.111853
v 1.883092 -0.500000 0.111853
v 1.917795 0.500000 -0.007594
v 1.917795 -0.500000 -0.007594
v 1.944929 0.500000 -0.128985
v 1.944929 -0.500000 -0.128985
v 1.964388 0.500000 -0.251840
v 1.964388 -0.500000 -0.251840
v 1.976093 0.500000 -0.375675
v 1.976093 -0.500000 -0.375675
v 1.980000 0.500000 -0.500001
v 1.980000 -0.500000 -0.500001
v 1.976093 0.500000 -0.624326
v 1.976093 -0.500000 -0.624326
v 1.964387 0.500000 -0.748161
v 1.964387 -0.500000 -0.748161
v 1.944929 0.500000 -0.871017
v 1.944929 -0.500000 -0.871017
v 1.917795 0.500000 -0.992407
v 1.917795 -0.500000 -0.992408
v 1.883092 0.500000 -1.111855
v 1.883092 -0.500000 -1.111855
v 1.840958 0.500000 -1.228888
v 1.840958 -0.500000 -1.228888
v 1.791557 0.500000 -1.343044
v 1.791557 -0.500000 -1.343044
v 1.735087 0.500000 -1.453874
v 1.735087 -0.500000 -1.453874
v 1.671769 0.500000 -1.560938
v 1.671769 -0.500000 -1.560938
v 1.601853 0.500000 -1.663816
v 1.601853 -0.500000 -1.663816
v 1.525616 0.500000 -1.762101
v 1.525616 -0.500000 -1.762101
v 1.443357 0.500000 -1.855405
v 1.443357 -0.500000 -1.855405
v 1.355403 0.500000 -1.943359
v 1.355403 -0.500000 -1.943359
v 1.262099 0.500000 -2.025617
v 1.262099 -0.500000 -2.025617
v 1.165386 0.500000 -2.100822
v 1.165386 -0.500000 -2.100822
v 0.545187 0.500000 -2.369817
v 0.545187 -0.500000 -2.369817
v -0.661521 0.500000 -2.331893
v -0.661521 -0.500000 -2.331893
v -1.263606 0.500000 -2.024486
v -1.263606 -0.500000 -2.024486
v -1.355406 0.500000 -1.943356
v -1.355406 -0.500000 -1.943356
v -1.443360 0.500000 -1.855402
v -1.443360 -0.500000 -1.855402
v -1.525618 0.500000 -1.762098
v -1.525618 -0.500000 -1.762098
v -1.601855 0.500000 -1.663813
v -1.601855 -0.500000 -1.663813
v -1.671771 0.500000 -1.560935
v -1.671771 -0.500000 -1.560935
v -1.735089 0.500000 -1.453871
v -1.735089 -0.500000 -1.453871
v -1.791559 0.500000 -1.343041
v -1.791559 -0.500000 -1.343041
v -1.840958 0.500000 -1.228884
v -1.840958 -0.500000 -1.228884
v -1.883093 0.500000 -1.111851
v -1.883093 -0.500000 -1.111851
v -1.917796 0.500000 -0.992404
v -1.917796 -0.500000 -0.992404
v -1.944930 0.500000 -0.871013
v -1.944930 -0.500000 -0.871013
v -1.964388 0.500000 -0.748158
v -1.964388 -0.500000 -0.748158
v -1.976093 0.500000 -0.624323
v -1.976093 -0.500000 -0.624323
v -1.980000 0.500000 -0.499997
v -1.980000 -0.500000 -0.499997
v -1.976093 0.500000 -0.375672
v -1.976093 -0.500000 -0.375672
v -1.964387 0.500000 -0.251837
v -1.964387 -0.500000 -0.251837
v -1.944929 0.500000 -0.128981
v -1.944929 -0.500000 -0.128982
v -1.917794 0.500000 -0.007591
v -1.917794 -0.500000 -0.007591
v -1.883091 0.500000 0.111857
v -1.883091 -0.500000 0.111857
v -1.840957 0.500000 0.228890
v -1.840957 -0.500000 0.228890
v -1.791556 0.500000 0.343046
v -1.791556 -0.500000 0.343046
v -1.735086 0.500000 0.453876
v -1.735086 -0.500000 0.453876
v -1.671768 0.500000 0.560940
v -1.671768 -0.500000 0.560940
v -1.601852 0.500000 0.663818
v -1.601852 -0.500000 0.663818
v -1.525614 0.500000 0.762102
v -1.525614 -0.500000 0.762102
v -1.443356 0.500000 0.855406
v -1.443356 -0.500000 0.855406
v -1.355401 0.500000 0.943360
v -1.355401 -0.500000 0.943360
v -1.262097 0.500000 1.025619
v -1.262097 -0.500000 1.025619
v -1.163812 0.500000 1.101856
v -1.163812 -0.500000 1.101856
v -1.060934 0.500000 1.171771
v -1.060934 -0.500000 1.171771
v -0.953869 0.500000 1.235090
v -0.953869 -0.500000 1.235090
v -0.843040 0.500000 1.291559
v -0.843040 -0.500000 1.291559
v -0.728883 0.500000 1.340959
v -0.728883 -0.500000 1.340959
v -0.611850 0.500000 1.383093
v -0.611850 -0.500000 1.383093
v -0.492403 0.500000 1.417796
v -0.492403 -0.500000 1.417796
v -0.371012 0.500000 1.444930
v -0.371012 -0.500000 1.444930
v -0.248156 0.500000 1.464388
v -0.248156 -0.500000 1.464388
v -0.124321 0.500000 1.476093
v -0.124321 -0.500000 1.476093
vn 0.031400 0.000000 0.999500
vn 0.094100 0.000000 0.995600
vn 0.156400 0.000000 0.987700
vn 0.218100 0.000000 0.975900
vn 0.279000 0.000000 0.960300
vn 0.338700 0.000000 0.940900
vn 0.397100 0.000000 0.917800
vn 0.454000 0.000000 0.891000
vn 0.509000 0.000000 0.860700
vn 0.562100 0.000000 0.827100
vn 0.612900 0.000000 0.790200
vn 0.661300 0.000000 0.750100
vn 0.707100 0.000000 0.707100
vn 0.750100 0.000000 0.661300
vn 0.790200 0.000000 0.612900
vn 0.827100 0.000000 0.562100
vn 0.860700 0.000000 0.509000
vn 0.891000 0.000000 0.454000
vn 0.917800 0.000000 0.397100
vn 0.940900 0.000000 0.338700
vn 0.960300 0.000000 0.279000
vn 0.975900 0.000000 0.218100
vn 0.987700 0.000000 0.156400
vn 0.995600 0.000000 0.094100
vn 0.999500 0.000000 0.031400
vn 0.999500 0.000000 -0.031400
vn 0.995600 0.000000 -0.094100
vn 0.987700 0.000000 -0.156400
vn 0.975900 0.000000 -0.218100
vn 0.960300 0.000000 -0.279000
vn 0.940900 0.000000 -0.338700
vn 0.917800 0.000000 -0.397100
vn 0.891000 0.000000 -0.454000
vn 0.860700 0.000000 -0.509000
vn 0.827100 0.000000 -0.562100
vn 0.790200 0.000000 -0.612900
vn 0.750100 0.000000 -0.661300
vn 0.707100 0.000000 -0.707100
vn 0.661300 0.000000 -0.750100
vn 0.612900 0.000000 -0.790200
vn 0.397500 0.000000 -0.917600
vn -0.031400 0.000000 -0.999500
vn -0.454300 0.000000 -0.890800
vn -0.661300 0.000000 -0.750100
vn -0.707100 0.000000 -0.707100
vn -0.750100 0.000000 -0.661300
vn -0.790200 0.000000 -0.612900
vn -0.827100 0.000000 -0.562100
vn -0.860700 0.000000 -0.509000
vn -0.891000 0.000000 -0.454000
vn -0.917800 0.000000 -0.397100
vn -0.940900 0.000000 -0.338700
vn -0.960300 0.000000 -0.279000
vn -0.975900 -0.000000 -0.218100
vn -0.987700 0.000000 -0.156400
vn -0.995600 -0.000000 -0.094100
vn -0.999500 0.000000 -0.031400
vn -0.999500 -0.000000 0.031400
vn -0.995600 -0.000000 0.094100
vn -0.987700 -0.000000 0.156400
vn -0.975900 -0.000000 0.218100
vn -0.960300 -0.000000 0.279000
vn -0.940900 0.000000 0.338700
vn -0.917800 0.000000 0.397100
vn -0.891000 0.000000 0.454000
vn -0.860700 0.000000 0.509000
vn -0.827100 0.000000 0.562100
vn -0.790200 0.000000 0.612900
vn -0.750100 0.000000 0.661300
vn -0.707100 0.000000 0.707100
vn -0.661300 0.000000 0.750100
vn -0.612900 0.000000 0.790200
vn -0.562100 0.000000 0.827100
vn -0.509000 0.000000 0.860700
vn -0.454000 0.000000 0.891000
vn -0.397100 0.000000 0.917800
vn -0.338700 0.000000 0.940900
vn -0.279000 0.000000 0.960300
vn -0.218100 0.000000 0.975900
vn -0.156400 0.000000 0.987700
vn -0.094100 0.000000 0.995600
vn -0.031400 0.000000 0.999500
vn -0.094100 0.000000 -0.995600
vn -0.156400 0.000000 -0.987700
vn -0.218100 0.000000 -0.975900
vn -0.279000 0.000000 -0.960300
vn -0.338700 0.000000 -0.940900
vn -0.397100 0.000000 -0.917800
vn -0.454000 0.000000 -0.891000
vn -0.509000 0.000000 -0.860700
vn -0.562100 0.000000 -0.827100
vn -0.612900 0.000000 -0.790200
vn -0.613900 0.000000 0.789400
vn -0.397900 0.000000 0.917400
vn 0.454700 0.000000 0.890600
vn 0.662200 0.000000 0.749300
vn 0.917800 0.000000 -0.397200
vn 0.562100 0.000000 -0.827100
vn 0.509000 0.000000 -0.860700
vn 0.454000 0.000000 -0.891000
vn 0.397100 0.000000 -0.917800
vn 0.338700 0.000000 -0.940900
vn 0.279000 0.000000 -0.960300
vn 0.218100 0.000000 -0.975900
vn 0.156400 0.000000 -0.987700
vn 0.094100 0.000000 -0.995600
vn 0.031400 0.000000 -0.999500
vn 0.000000 1.000000 0.000000
vn 0.000000 -1.000000 0.000000
usemtl Material.002
s off
f 1//1 2//1 4//1 3//1
f 3//2 4//2 6//2 5//2
f 5//3 6//3 8//3 7//3
f 7//4 8//4 10//4 9//4
f 9//5 10//5 12//5 11//5
f 11//6 12//6 14//6 13//6
f 13//7 14//7 16//7 15//7
f 15//8 16//8 18//8 17//8
f 17//9 18//9 20//9 19//9
f 19//10 20//10 22//10 21//10
f 21//11 22//11 24//11 23//11
f 23//12 24//12 26//12 25//12
f 25//13 26//13 28//13 27//13
f 27//14 28//14 30//14 29//14
f 29//15 30//15 32//15 31//15
f 31//16 32//16 34//16 33//16
f 33//17 34//17 36//17 35//17
f 35//18 36//18 38//18 37//18
f 37//19 38//19 40//19 39//19
f 39//20 40//20 42//20 41//20
f 41//21 42//21 44//21 43//21
f 43//22 44//22 46//22 45//22
f 45//23 46//23 48//23 47//23
f 47//24 48//24 50//24 49//24
f 49//25 50//25 52//25 51//25
f 51//26 52//26 54//26 53//26
f 53//27 54//27 56//27 55//27
f 55//28 56//28 58//28 57//28
f 57//29 58//29 60//29 59//29
f 59//30 60//30 62//30 61//30
f 61//31 62//31 64//31 63//31
f 63//32 64//32 66//32 65//32
f 65//33 66//33 68//33 67//33
f 67//34 68//34 70//34 69//34
f 69//35 70//35 72//35 71//35
f 71//36 72//36 74//36 73//36
f 73//37 74//37 76//37 75//37
f 75//38 76//38 78//38 77//38
f 77//39 78//39 80//39 79//39
f 79//40 80//40 82//40 81//40
f 81//41 82//41 84//41 83//41
f 83//42 84//42 86//42 85//42
f 85//43 86//43 88//43 87//43
f 87//44 88//44 90//44 89//44
f 89//45 90//45 92//45 91//45
f 91//46 92//46 94//46 93//46
f 93//47 94//47 96//47 95//47
f 95//48 96//48 98//48 97//48
f 97//49 98//49 100//49 99//49
f 99//50 100//50 102//50 101//50
f 101//51 102//51 104//51 103//51
f 103//52 104//52 106//52 105//52
f 105//53 106//53 108//53 107//53
f 107//54 108//54 110//54 109//54
f 109//55 110//55 112//55 111//55
f 111//56 112//56 114//56 113//56
f 113//57 114//57 116//57 115//57
f 115//58 116//58 118//58 117//58
f 117//59 118//59 120//59 119//59
f 119//60 120//60 122//60 121//60
f 121//61 122//61 124//61 123//61
f 123//62 124//62 126//62 125//62
f 125//63 126//63 128//63 127//63
f 127//64 128//64 130//64 129//64
f 129//65 130//65 132//65 131//65
f 131//66 132//66 134//66 133//66
f 133//67 134//67 136//67 135//67
f 135//68 136//68 138//68 137//68
f 137//69 138//69 140//69 139//69
f 139//70 140//70 142//70 141//70
f 141//71 142//71 144//71 143//71
f 143//72 144//72 146//72 145//72
f 145//73 146//73 148//73 147//73
f 147//74 148//74 150//74 149//74
f 149//75 150//75 152//75 151//75
f 151//76 152//76 154//76 153//76
f 153//77 154//77 156//77 155//77
f 155//78 156//78 158//78 157//78
f 157//79 158//79 160//79 159//79
f 159//80 160//80 162//80 161//80
f 161//81 162//81 164//81 163//81
f 163//82 164//82 2//82 1//82
f 167//42 168//42 166//42 165//42
f 169//83 170//83 168//83 167//83
f 171//84 172//84 170//84 169//84
f 173//85 174//85 172//85 171//85
f 175//86 176//86 174//86 173//86
f 177//87 178//87 176//87 175//87
f 179//88 180//88 178//88 177//88
f 181//89 182//89 180//89 179//89
f 183//90 184//90 182//90 181//90
f 185//91 186//91 184//91 183//91
f 187//92 188//92 186//92 185//92
f 189//44 190//44 188//44 187//44
f 191//45 192//45 190//45 189//45
f 193//46 194//46 192//46 191//46
f 195//47 196//47 194//47 193//47
f 197//48 198//48 196//48 195//48
f 199//49 200//49 198//49 197//49
f 201//50 202//50 200//50 199//50
f 203//51 204//51 202//51 201//51
f 205//52 206//52 204//52 203//52
f 207//53 208//53 206//53 205//53
f 209//54 210//54 208//54 207//54
f 211//55 212//55 210//55 209//55
f 213//56 214//56 212//56 211//56
f 215//57 216//57 214//57 213//57
f 217//58 218//58 216//58 215//58
f 219//59 220//59 218//59 217//59
f 221//60 222//60 220//60 219//60
f 223//61 224//61 222//61 221//61
f 225//62 226//62 224//62 223//62
f 227//63 228//63 226//63 225//63
f 229//64 230//64 228//64 227//64
f 231//65 232//65 230//65 229//65
f 233//66 234//66 232//66 231//66
f 235//67 236//67 234//67 233//67
f 237//68 238//68 236//68 235//68
f 239//69 240//69 238//69 237//69
f 241//70 242//70 240//70 239//70
f 243//71 244//71 242//71 241//71
f 245//93 246//93 244//93 243//93
f 247//94 248//94 246//94 245//94
f 249//1 250//1 248//1 247//1
f 251//95 252//95 250//95 249//95
f 253//96 254//96 252//96 251//96
f 255//13 256//13 254//13 253//13
f 257//14 258//14 256//14 255//14
f 259//15 260//15 258//15 257//15
f 261//16 262//16 260//16 259//16
f 263//17 264//17 262//17 261//17
f 265//18 266//18 264//18 263//18
f 267//19 268//19 266//19 265//19
f 269//20 270//20 268//20 267//20
f 271//21 272//21 270//21 269//21
f 273//22 274//22 272//22 271//22
f 275//23 276//23 274//23 273//23
f 277//24 278//24 276//24 275//24
f 279//25 280//25 278//25 277//25
f 281//26 282//26 280//26 279//26
f 283//27 284//27 282//27 281//27
f 285//28 286//28 284//28 283//28
f 287//29 288//29 286//29 285//29
f 289//30 290//30 288//30 287//30
f 291//31 292//31 290//31 289//31
f 293//97 294//97 292//97 291//97
f 295//33 296//33 294//33 293//33
f 297//34 298//34 296//34 295//34
f 299//35 300//35 298//35 297//35
f 301//36 302//36 300//36 299//36
f 303//37 304//37 302//37 301//37
f 305//38 306//38 304//38 303//38
f 307//39 308//39 306//39 305//39
f 309//40 310//40 308//40 307//40
f 311//98 312//98 310//98 309//98
f 313//99 314//99 312//99 311//99
f 315//100 316//100 314//100 313//100
f 317//101 318//101 316//101 315//101
f 319//102 320//102 318//102 317//102
f 321//103 322//103 320//103 319//103
f 323//104 324//104 322//104 321//104
f 325//105 326//105 324//105 323//105
f 327//106 328//106 326//106 325//106
f 165//107 166//107 328//107 327//107
f 1//108 3//108 167//108 165//108
f 4//109 2//109 166//109 168//109
f 3//108 5//108 169//108 167//108
f 6//109 4//109 168//109 170//109
f 5//108 7//108 171//108 169//108
f 8//109 6//109 170//109 172//109
f 7//108 9//108 173//108 171//108
f 10//109 8//109 172//109 174//109
f 9//108 11//108 175//108 173//108
f 12//109 10//109 174//109 176//109
f 11//108 13//108 177//108 175//108
f 14//109 12//109 176//109 178//109
f 13//108 15//108 179//108 177//108
f 16//109 14//109 178//109 180//109
f 15//108 17//108 181//108 179//108
f 18//109 16//109 180//109 182//109
f 17//108 19//108 183//108 181//108
f 20//109 18//109 182//109 184//109
f 19//108 21//108 185//108 183//108
f 22//109 20//109 184//109 186//109
f 21//108 23//108 187//108 185//108
f 24//109 22//109 186//109 188//109
f 23//108 25//108 189//108 187//108
f 26//109 24//109 188//109 190//109
f 25//108 27//108 191//108 189//108
f 28//109 26//109 190//109 192//109
f 27//108 29//108 193//108 191//108
f 30//109 28//109 192//109 194//109
f 29//108 31//108 195//108 193//108
f 32//109 30//109 194//109 196//109
f 31//108 33//108 197//108 195//108
f 34//109 32//109 196//109 198//109
f 33//108 35//108 199//108 197//108
f 36//109 34//109 198//109 200//109
f 35//108 37//108 201//108 199//108
f 38//109 36//109 200//109 202//109
f 37//108 39//108 203//108 201//108
f 40//109 38//109 202//109 204//109
f 39//108 41//108 205//108 203//108
f 42//109 40//109 204//109 206//109
f 41//108 43//108 207//108 205//108
f 44//109 42//109 206//109 208//109
f 43//108 45//108 209//108 207//108
f 46//109 44//109 208//109 210//109
f 45//108 47//108 211//108 209//108
f 48//109 46//109 210//109 212//109
f 47//108 49//108 213//108 211//108
f 50//109 48//109 212//109 214//109
f 49//108 51//108 215//108 213//108
f 52//109 50//109 214//109 216//109
f 51//108 53//108 217//108 215//108
f 54//109 52//109 216//109 218//109
f 53//108 55//108 219//108 217//108
f 56//109 54//109 218//109 220//109
f 55//108 57//108 221//108 219//108
f 58//109 56//109 220//109 222//109
f 57//108 59//108 223//108 221//108
f 60//109 58//109 222//109 224//109
f 59//108 61//108 225//108 223//108
f 62//109 60//109 224//109 226//109
f 61//108 63//108 227//108 225//108
f 64//109 62//109 226//109 228//109
f 63//108 65//108 229//108 227//108
f 66//109 64//109 228//109 230//109
f 65//108 67//108 231//108 229//108
f 68//109 66//109 230//109 232//109
f 67//108 69//108 233//108 231//108
f 70//109 68//109 232//109 234//109
f 69//108 71//108 235//108 233//108
f 72//109 70//109 234//109 236//109
f 71//108 73//108 237//108 235//108
f 74//109 72//109 236//109 238//109
f 73//108 75//108 239//108 237//108
f 76//109 74//109 238//109 240//109
f 75//108 77//108 241//108 239//108
f 78//109 76//109 240//109 242//109
f 77//108 79//108 243//108 241//108
f 80//109 78//109 242//109 244//109
f 79//108 81//108 245//108 243//108
f 82//109 80//109 244//109 246//109
f 81//108 83//108 247//108 245//108
f 84//109 82//109 246//109 248//109
f 83//108 85//108 249//108 247//108
f 86//109 84//109 248//109 250//109
f 85//108 87//108 251//108 249//108
f 87//108 89//108 253//108 251//108
f 90//109 88//109 252//109 254//109
f 89//108 91//108 255//108 253//108
f 92//109 90//109 254//109 256//109
f 91//108 93//108 257//108 255//108
f 94//109 92//109 256//109 258//109
f 93//108 95//108 259//108 257//108
f 96//109 94//109 258//109 260//109
f 95//108 97//108 261//108 259//108
f 98//109 96//109 260//109 262//109
f 97//108 99//108 263//108 261//108
f 100//109 98//109 262//109 264//109
f 99//108 101//108 265//108 263//108
f 102//109 100//109 264//109 266//109
f 101//108 103//108 267//108 265//108
f 104//109 102//109 266//109 268//109
f 103//108 105//108 269//108 267//108
f 106//109 104//109 268//109 270//109
f 105//108 107//108 271//108 269//108
f 108//109 106//109 270//109 272//109
f 107//108 109//108 273//108 271//108
f 110//109 108//109 272//109 274//109
f 109//108 111//108 275//108 273//108
f 112//109 110//109 274//109 276//109
f 111//108 113//108 277//108 275//108
f 114//109 112//109 276//109 278//109
f 113//108 115//108 279//108 277//108
f 116//109 114//109 278//109 280//109
f 115//108 117//108 281//108 279//108
f 118//109 116//109 280//109 282//109
f 117//108 119//108 283//108 281//108
f 120//109 118//109 282//109 284//109
f 119//108 121//108 285//108 283//108
f 122//109 120//109 284//109 286//109
f 121//108 123//108 287//108 285//108
f 124//109 122//109 286//109 288//109
f 123//108 125//108 289//108 287//108
f 126//109 124//109 288//109 290//109
f 125//108 127//108 291//108 289//108
f 128//109 126//109 290//109 292//109
f 127//108 129//108 293//108 291//108
f 130//109 128//109 292//109 294//109
f 129//108 131//108 295//108 293//108
f 132//109 130//109 294//109 296//109
f 131//108 133//108 297//108 295//108
f 134//109 132//109 296//109 298//109
f 133//108 135//108 299//108 297//108
f 136//109 134//109 298//109 300//109
f 135//108 137//108 301//108 299//108
f 138//109 136//109 300//109 302//109
f 137//108 139//108 303//108 301//108
f 140//109 138//109 302//109 304//109
f 139//108 141//108 305//108 303//108
f 142//109 140//109 304//109 306//109
f 141//108 143//108 307//108 305//108
f 144//109 142//109 306//109 308//109
f 143//108 145//108 309//108 307//108
f 146//109 144//109 308//109 310//109
f 145//108 147//108 311//108 309//108
f 148//109 146//109 310//109 312//109
f 147//108 149//108 313//108 311//108
f 150//109 148//109 312//109 314//109
f 149//108 151//108 315//108 313//108
f 152//109 150//109 314//109 316//109
f 151//108 153//108 317//108 315//108
f 154//109 152//109 316//109 318//109
f 153//108 155//108 319//108 317//108
f 156//109 154//109 318//109 320//109
f 155//108 157//108 321//108 319//108
f 158//109 156//109 320//109 322//109
f 157//108 159//108 323//108 321//108
f 160//109 158//109 322//109 324//109
f 159//108 161//108 325//108 323//108
f 162//109 160//109 324//109 326//109
f 161//108 163//108 327//108 325//108
f 164//109 162//109 326//109 328//109
f 163//108 1//108 165//108 327//108
f 2//109 164//109 328//109 166//109
f 88//109 86//109 250//109 252//109
